<svg width="20" height="15" viewBox="0 0 20 15" fill="none" xmlns="http://www.w3.org/2000/svg">
<path d="M0.796682 7.79143C0.734497 7.60485 0.734438 7.40286 0.796513 7.21625C2.04627 3.45924 5.59026 0.75 9.76703 0.75C13.9419 0.75 17.4845 3.45672 18.7358 7.21101C18.798 7.39758 18.798 7.59958 18.736 7.78619C17.4862 11.5432 13.9422 14.2524 9.76545 14.2524C5.59063 14.2524 2.04799 11.5457 0.796682 7.79143Z" stroke="black" stroke-width="1.5" stroke-linecap="round" stroke-linejoin="round"/>
<path d="M12.4668 7.50122C12.4668 8.99265 11.2577 10.2017 9.7663 10.2017C8.27486 10.2017 7.06582 8.99265 7.06582 7.50122C7.06582 6.00978 8.27486 4.80073 9.7663 4.80073C11.2577 4.80073 12.4668 6.00978 12.4668 7.50122Z" stroke="black" stroke-width="1.5" stroke-linecap="round" stroke-linejoin="round"/>
</svg>
