<svg width="11" height="20" viewBox="0 0 11 20" fill="none" xmlns="http://www.w3.org/2000/svg">
<path d="M0 2.22222C0 0.994922 1.00808 0 2.25161 0C3.49517 0 4.50321 0.994922 4.50321 2.22222C4.50321 3.04476 4.05042 3.76292 3.37741 4.14716V12.2662H5.39429C6.63785 12.2662 7.64589 11.2712 7.64589 10.044V8.64867C6.96005 8.26789 6.49679 7.54263 6.49679 6.71061C6.49679 5.48331 7.50483 4.48839 8.74839 4.48839C9.99184 4.48839 11 5.48331 11 6.71061C11 7.52359 10.5576 8.23456 9.8975 8.622V10.044C9.8975 12.4986 7.8813 14.4884 5.39429 14.4884H3.37741V15.8529C4.05042 16.2371 4.50321 16.9552 4.50321 17.7778C4.50321 19.0051 3.49517 20 2.25161 20C1.00808 20 0 19.0051 0 17.7778C0 16.9552 0.452798 16.2371 1.1258 15.8529V4.14716C0.452798 3.76292 0 3.04476 0 2.22222Z" fill="black"/>
</svg>
