<svg width="20" height="20" viewBox="0 0 20 20" fill="none" xmlns="http://www.w3.org/2000/svg">
<g clip-path="url(#clip0_449_438)">
<path d="M10 0C8.02223 0 6.08883 0.586508 4.44434 1.68532C2.79985 2.78414 1.51806 4.34592 0.7612 6.17318C0.00432262 8.00045 -0.193696 10.0111 0.192153 11.9509C0.578015 13.8906 1.53045 15.6726 2.92897 17.0711C4.32749 18.4695 6.10935 19.422 8.04917 19.8078C9.98897 20.1937 11.9996 19.9957 13.8268 19.2388C15.6542 18.482 17.2158 17.2002 18.3148 15.5557C19.4135 13.9112 20 11.9778 20 10C20 7.34783 18.9465 4.80431 17.0711 2.92894C15.1957 1.05357 12.6522 0 10 0ZM10 18.4615C8.32651 18.4615 6.69051 17.9654 5.29901 17.0355C3.90752 16.1058 2.82309 14.7842 2.18266 13.2381C1.54222 11.6919 1.37465 9.99061 1.70114 8.34923C2.02763 6.70786 2.83354 5.20023 4.01691 4.01686C5.20028 2.83349 6.70789 2.02758 8.34928 1.70109C9.99065 1.3746 11.692 1.54218 13.2381 2.18262C14.7843 2.82305 16.1058 3.90749 17.0355 5.29898C17.9654 6.69048 18.4615 8.32646 18.4615 10C18.4615 12.2441 17.57 14.3963 15.9832 15.9831C14.3963 17.57 12.2442 18.4615 10 18.4615Z" fill="black"/>
<path d="M10.0007 11.2507C10.6911 11.2507 11.2507 10.6911 11.2507 10.0007C11.2507 9.31039 10.6911 8.75075 10.0007 8.75075C9.31038 8.75075 8.75073 9.31039 8.75073 10.0007C8.75073 10.6911 9.31038 11.2507 10.0007 11.2507Z" fill="black"/>
</g>
<defs>
<clipPath id="clip0_449_438">
<rect width="20" height="20" fill="white"/>
</clipPath>
</defs>
</svg>
