<svg width="20" height="19" viewBox="0 0 20 19" fill="none" xmlns="http://www.w3.org/2000/svg">
<path fill-rule="evenodd" clip-rule="evenodd" d="M10.0013 2.10657e-07C10.1903 -0.000121313 10.3755 0.0523377 10.5361 0.15144C10.6966 0.250542 10.8261 0.392329 10.9097 0.560754L13.4502 5.67864L19.1331 6.49965C19.32 6.52663 19.4956 6.60503 19.64 6.72599C19.7844 6.84695 19.8919 7.00564 19.9504 7.18414C20.0088 7.36264 20.0158 7.55381 19.9706 7.73606C19.9254 7.91831 19.8298 8.08436 19.6947 8.21545L15.583 12.1998L16.5535 17.8234C16.5855 18.0084 16.5648 18.1987 16.4937 18.3726C16.4226 18.5466 16.3039 18.6973 16.1511 18.8077C15.9983 18.9181 15.8174 18.9838 15.629 18.9974C15.4406 19.0109 15.2521 18.9719 15.0849 18.8845L10.0013 16.2283L4.91769 18.8845C4.75056 18.9718 4.56223 19.0108 4.37395 18.9972C4.18568 18.9837 4.00496 18.9181 3.85222 18.8079C3.69947 18.6977 3.58077 18.5472 3.50953 18.3735C3.43829 18.1997 3.41733 18.0097 3.44904 17.8247L4.42094 12.1984L0.306554 8.21545C0.170982 8.08442 0.0750514 7.91826 0.0296319 7.73582C-0.0157876 7.55338 -0.00887962 7.36194 0.0495731 7.18319C0.108026 7.00445 0.215686 6.84555 0.360354 6.7245C0.505022 6.60346 0.680914 6.5251 0.868098 6.49831L6.55103 5.67864L9.09282 0.560754C9.17648 0.392329 9.30592 0.250542 9.46647 0.15144C9.62702 0.0523377 9.81228 -0.000121313 10.0013 2.10657e-07ZM10.0013 3.28001L8.13172 7.04297C8.05911 7.18906 7.9519 7.31544 7.81928 7.41125C7.68667 7.50706 7.53262 7.56943 7.37039 7.59299L3.18986 8.19667L6.21356 11.1265C6.3312 11.2404 6.41922 11.381 6.47001 11.5362C6.52081 11.6913 6.53286 11.8565 6.50513 12.0173L5.7924 16.1546L9.53018 14.2013C9.67546 14.1254 9.83714 14.0857 10.0013 14.0857C10.1654 14.0857 10.3271 14.1254 10.4724 14.2013L14.2115 16.1546L13.4961 12.0173C13.4683 11.8565 13.4804 11.6913 13.5312 11.5362C13.582 11.381 13.67 11.2404 13.7876 11.1265L16.8113 8.19801L12.6322 7.59433C12.4699 7.57077 12.3159 7.5084 12.1833 7.41259C12.0507 7.31678 11.9434 7.1904 11.8708 7.04431L10.0013 3.27867V3.28001Z" fill="#FF9432"/>
</svg>
