<svg width="13" height="13" viewBox="0 0 13 13" fill="none" xmlns="http://www.w3.org/2000/svg">
<path fill-rule="evenodd" clip-rule="evenodd" d="M6.48296 1.374e-07C6.60547 -7.91259e-05 6.72556 0.0341371 6.82963 0.098776C6.93371 0.163415 7.01761 0.255895 7.07184 0.36575L8.71859 3.70387L12.4023 4.23937C12.5235 4.25697 12.6373 4.30811 12.7309 4.387C12.8245 4.4659 12.8942 4.56941 12.9321 4.68583C12.97 4.80225 12.9745 4.92695 12.9452 5.04582C12.9159 5.16469 12.854 5.273 12.7663 5.3585L10.1011 7.95725L10.7302 11.6253C10.751 11.7459 10.7375 11.87 10.6914 11.9835C10.6453 12.0969 10.5684 12.1952 10.4693 12.2672C10.3703 12.3392 10.2531 12.3821 10.1309 12.391C10.0088 12.3998 9.88662 12.3743 9.77821 12.3174L6.48296 10.5849L3.18771 12.3174C3.07938 12.3743 2.9573 12.3997 2.83525 12.3909C2.71321 12.382 2.59607 12.3393 2.49706 12.2674C2.39805 12.1955 2.32111 12.0973 2.27492 11.984C2.22874 11.8707 2.21516 11.7467 2.23571 11.6261L2.86571 7.95638L0.198713 5.3585C0.110833 5.27303 0.0486493 5.16466 0.0192078 5.04566C-0.0102337 4.92666 -0.00575589 4.8018 0.0321339 4.68521C0.0700237 4.56863 0.139811 4.46499 0.233586 4.38603C0.327362 4.30708 0.441377 4.25597 0.562712 4.2385L4.24646 3.70387L5.89409 0.36575C5.94832 0.255895 6.03222 0.163415 6.13629 0.098776C6.24036 0.0341371 6.36045 -7.91259e-05 6.48296 1.374e-07V1.374e-07ZM6.48296 2.13938L5.27109 4.59375C5.22403 4.68904 5.15453 4.77147 5.06856 4.83396C4.9826 4.89645 4.88275 4.93713 4.77759 4.9525L2.06771 5.34625L4.02771 7.25725C4.10397 7.33151 4.16102 7.4232 4.19395 7.52441C4.22688 7.62563 4.23469 7.73334 4.21671 7.83825L3.75471 10.5367L6.17759 9.26275C6.27176 9.21324 6.37657 9.18737 6.48296 9.18737C6.58936 9.18737 6.69416 9.21324 6.78834 9.26275L9.21209 10.5367L8.74834 7.83825C8.73036 7.73334 8.73817 7.62563 8.7711 7.52441C8.80403 7.4232 8.86108 7.33151 8.93734 7.25725L10.8973 5.34713L8.18834 4.95337C8.08318 4.93801 7.98332 4.89733 7.89736 4.83484C7.8114 4.77235 7.7419 4.68991 7.69484 4.59462L6.48296 2.1385V2.13938Z" fill="#FF9432"/>
</svg>
